<?xml version="1.0" encoding="UTF-8" standalone="no"?>
<svg
   xmlns:dc="http://purl.org/dc/elements/1.1/"
   xmlns:cc="http://creativecommons.org/ns#"
   xmlns:rdf="http://www.w3.org/1999/02/22-rdf-syntax-ns#"
   xmlns:svg="http://www.w3.org/2000/svg"
   xmlns="http://www.w3.org/2000/svg"
   viewBox="0 0 46.7 46.3"
   height="46.3"
   width="46.7"
   xml:space="preserve"
   id="svg2"
   version="1.1"><metadata
     id="metadata8"><rdf:RDF><cc:Work
         rdf:about=""><dc:format>image/svg+xml</dc:format><dc:type
           rdf:resource="http://purl.org/dc/dcmitype/StillImage" /><dc:title></dc:title></cc:Work></rdf:RDF></metadata><defs
     id="defs6" /><g
     transform="matrix(1.33,0,0,-1.33,-65.9,46.3)"
     id="g10"><g
       transform="scale(1,-1)"
       id="g12"><path
         id="path14"
         style="fill:#1d1d1b;fill-opacity:1;fill-rule:nonzero;stroke:none"
         d="M 81.6,-11.3 C 80.1,-8.01 77.5,-5.28 74.1,-3.51 70.4,-1.51 66.5,-1.82 62.4,-2.15 62.2,-2.16 62.1,-2.11 62,-2.04 59.1,-2.72 56.4,-3.92 54.7,-6.4 52.2,-10.2 51,-15.1 51,-19.6 51.1,-24.5 54.8,-28.6 59.1,-31.1 63.7,-33.7 69,-34.2 73.9,-32 82,-28.3 85,-18.7 81.6,-11.3 Z M 76.9,-32 C 68.4,-38 56.2,-33.7 51.3,-25.6 48.8,-21.5 49.4,-16.5 50.6,-12.1 51.9,-7.71 54,-3.55 58.7,-1.64 60.2,-1.06 61.7,-0.693 63.3,-0.524 71.1,1.74 79.6,-3.69 82.9,-10.1 86.8,-17.7 84.1,-26.8 76.9,-32 Z" /><path
         id="path16"
         style="fill:#1d1d1b;fill-opacity:1;fill-rule:nonzero;stroke:none"
         d="M 78.6,-15.5 C 78.6,-15.5 78.5,-15.5 78.5,-15.5 78.1,-15.5 77.7,-15.5 77.3,-15.4 77.3,-15.4 77.2,-15.4 77.2,-15.4 77,-15.3 76.9,-15.3 76.9,-15.2 76.5,-15 76.5,-14.4 77,-14.4 77.2,-14.4 77.3,-14.4 77.5,-14.4 77.5,-14.4 77.5,-14.4 77.5,-14.4 77.6,-14.3 77.7,-14.3 77.9,-14.2 78.1,-14.1 78.3,-14.3 78.4,-14.5 78.4,-14.5 78.4,-14.5 78.5,-14.5 78.1,-12.5 77.1,-10.7 75.5,-9.06 73.5,-6.96 70.6,-5.55 67.6,-5.31 67.6,-5.32 67.6,-5.33 67.6,-5.33 67.4,-5.91 67.4,-6.5 67.4,-7.08 67.4,-7.23 67.3,-7.33 67.2,-7.4 67.2,-7.4 67.2,-7.66 67.2,-7.66 67.2,-8.03 66.7,-8.14 66.6,-7.84 66.4,-8.05 66,-7.97 66,-7.66 66,-7.66 66,-7.66 66,-7.66 66,-7.54 66,-7.41 66,-7.29 65.8,-6.67 65.7,-5.97 65.8,-5.32 65.2,-5.37 64.6,-5.46 64,-5.6 59.3,-7.38 56.1,-11 55.6,-15.9 56,-16 56.4,-16 56.9,-16.1 57.1,-16.1 57.3,-16.1 57.6,-16.1 58.1,-16.1 58.1,-16.8 57.6,-16.9 57.6,-16.9 57.6,-16.9 57.6,-16.9 57.6,-17.2 57.5,-17.3 57.3,-17.5 57.3,-17.6 57.2,-17.8 57,-17.8 56.5,-17.9 56,-18 55.6,-18 56,-23.4 60.2,-28.4 66.1,-29.5 66.1,-29.5 66.1,-29.5 66.1,-29.5 66.1,-29.5 66.1,-29.4 66.2,-29.3 66.2,-29.3 66.2,-29.3 66.2,-29.2 66.2,-29.2 66.2,-29.1 66.2,-29.1 66.2,-29 66.2,-29 66.2,-29 66.2,-28.7 66.4,-28.6 66.6,-28.6 66.8,-28.6 67,-28.7 67,-29 67,-29.2 67,-29.4 66.9,-29.7 73.6,-30.4 78,-23.5 78.6,-18.2 78.7,-17.3 78.7,-16.4 78.6,-15.5 Z M 67.9,-31.3 C 60.1,-31.5 54.3,-24.1 54.1,-17.5 53.8,-11.8 57.6,-6.58 63.3,-5.01 63.3,-4.89 63.4,-4.79 63.5,-4.73 67.5,-2.92 71.8,-4.43 75.1,-6.66 78.7,-8.98 80.5,-12.3 80.7,-16.3 81,-23 75.8,-31 67.9,-31.3 Z" /><path
         id="path18"
         style="fill:#1d1d1b;fill-opacity:1;fill-rule:nonzero;stroke:none"
         d="M 73.7,-15.4 C 73.7,-15.4 73.7,-15.4 73.7,-15.4 73.3,-16.1 71.8,-16.3 71.3,-16.5 71,-16.6 70.8,-16.5 70.7,-16.4 69.8,-16.5 68.9,-16.7 68,-16.7 67.9,-17.2 67.8,-17.7 67.5,-18.1 67.7,-19.2 67.7,-20.4 67.6,-21.6 67.7,-23.2 67.8,-24.8 67.4,-26.4 67.2,-27.2 65.9,-27.1 65.8,-26.3 65.5,-26.3 65.3,-26.1 65.4,-25.7 65.6,-23.5 65.5,-21.3 65.4,-19.1 65.3,-18.8 65.3,-18.4 65.3,-18.1 64.9,-17.7 64.5,-17.1 64.4,-16.5 64.2,-16.4 64.1,-16.2 64,-16.1 63.8,-15.8 63.9,-15.3 64.1,-15.1 64.2,-15 64.4,-14.9 64.6,-14.7 64.6,-14.5 64.7,-14.2 64.8,-14 64.8,-14 64.9,-13.9 64.9,-13.9 65,-13.8 65,-13.7 65.1,-13.6 65.1,-13.6 65.2,-13.5 65.2,-13.5 65.3,-13.5 65.3,-13.4 65.4,-13.4 65.4,-13.3 65.5,-13.3 65.6,-13.2 66.2,-12.9 66.9,-12.9 67.5,-13.2 67.8,-13.4 68.1,-13.8 68.3,-14.1 68.3,-14.2 68.3,-14.2 68.3,-14.2 70,-14.1 71.6,-14.1 73.2,-13.8 74.3,-13.5 74.8,-15.2 73.7,-15.4 Z" /></g></g></svg>