<?xml version="1.0" encoding="UTF-8" standalone="no"?>
<svg
   xmlns:dc="http://purl.org/dc/elements/1.1/"
   xmlns:cc="http://creativecommons.org/ns#"
   xmlns:rdf="http://www.w3.org/1999/02/22-rdf-syntax-ns#"
   xmlns:svg="http://www.w3.org/2000/svg"
   xmlns="http://www.w3.org/2000/svg"
   viewBox="0 0 43.4 36.3"
   height="36.3"
   width="43.4"
   xml:space="preserve"
   id="svg2"
   version="1.1"><metadata
     id="metadata8"><rdf:RDF><cc:Work
         rdf:about=""><dc:format>image/svg+xml</dc:format><dc:type
           rdf:resource="http://purl.org/dc/dcmitype/StillImage" /><dc:title></dc:title></cc:Work></rdf:RDF></metadata><defs
     id="defs6" /><g
     transform="matrix(1.33,0,0,-1.33,1.16e-4,36.3)"
     id="g10"><g
       transform="scale(1,-1)"
       id="g12"><path
         id="path14"
         style="fill:#1d1d1b;fill-opacity:1;fill-rule:nonzero;stroke:none"
         d="M 30.7,-2.77 C 30.7,-2.77 30.7,-2.77 30.7,-2.77 30.6,-2.58 30.4,-2.43 30.2,-2.31 28.8,-4.73 27.2,-7.04 25.9,-9.55 25.3,-10.8 25,-12.4 24,-13.5 26.8,-15.1 29.1,-17.1 30.6,-19.9 30.7,-18 30.8,-16.1 30.8,-14.2 30.9,-10.4 30.8,-6.59 30.7,-2.77 Z M 25.8,-1.94 C 24,-2.03 22.3,-2.33 20.6,-2.46 14.8,-2.92 8.97,-3.11 3.14,-2.93 4.19,-4.32 5.2,-5.73 6.22,-7.15 7.65,-8.95 9.12,-10.7 10.5,-12.6 11.6,-11.6 12.8,-10.7 14.1,-9.95 14.5,-9.75 14.8,-9.81 15,-9.99 15.1,-9.93 15.2,-9.92 15.4,-9.96 17.7,-10.6 20.2,-11.5 22.5,-12.7 22.5,-12.7 22.5,-12.7 22.6,-12.7 22.7,-12.6 22.8,-12.5 22.9,-12.4 24.3,-8.74 25.8,-4.68 28.5,-1.85 27.5,-1.79 26.5,-1.89 25.8,-1.94 Z M 1.84,-21.9 C 2.12,-21.5 2.45,-21.1 2.78,-20.8 4.8,-18.2 6.9,-15.8 9.28,-13.6 9.23,-13.6 9.18,-13.5 9.14,-13.5 8.59,-12.7 8.01,-11.9 7.43,-11.2 7.33,-11.1 7.24,-10.9 7.14,-10.8 5.33,-8.53 3.44,-6.3 1.81,-3.87 1.14,-9.85 1.73,-15.9 1.84,-21.9 Z M 2.29,-24.8 C 3.48,-24.6 4.69,-24.7 5.94,-24.9 8.65,-25.2 11.5,-25.3 14.2,-25.3 18.8,-25.4 23.4,-24.2 28,-24 28.5,-23.9 29.1,-23.8 29.6,-23.6 29.7,-23.6 29.8,-23.6 29.9,-23.6 30,-23.4 30,-23.2 30.1,-23.1 28.2,-16.5 21.6,-13.4 15.7,-11.1 15.6,-11.2 15.6,-11.3 15.4,-11.3 15.3,-11.3 15.2,-11.3 15.1,-11.3 15.1,-11.4 15.1,-11.4 15,-11.4 12.2,-13.1 9.95,-15.3 7.78,-17.6 7,-18.5 6.23,-19.3 5.46,-20.2 4.54,-21.3 3.64,-22.4 2.75,-23.6 2.58,-23.8 2.37,-23.9 2.17,-23.9 2.1,-24.2 2.12,-24.5 2.29,-24.8 Z M 32.6,-14.8 C 32.5,-18.3 32.4,-21.9 31.3,-25.2 31.2,-25.5 30.9,-25.8 30.5,-25.8 29.3,-25.7 28.2,-25.7 27,-25.8 18.8,-27.5 10.4,-27.5 2.14,-26.9 1.84,-26.9 1.62,-26.6 1.52,-26.4 1.35,-26.4 1.18,-26.4 1.01,-26.3 0.918,-26.3 0.846,-26.2 0.784,-26.2 0.609,-26.1 0.481,-25.9 0.481,-25.6 0.466,-17.9 -0.702,-10.1 0.657,-2.41 0.723,-2.03 1,-1.89 1.29,-1.93 1.38,-1.81 1.52,-1.73 1.72,-1.72 8.32,-1.44 15,-1.37 21.5,-0.648 24.2,-0.362 29.2,0.913 31.6,-1.17 32,-1.15 32.5,-1.44 32.5,-2.02 32.5,-6.3 32.7,-10.5 32.6,-14.8 Z" /></g></g></svg>