<?xml version="1.0" encoding="UTF-8" standalone="no"?>
<svg
   xmlns:dc="http://purl.org/dc/elements/1.1/"
   xmlns:cc="http://creativecommons.org/ns#"
   xmlns:rdf="http://www.w3.org/1999/02/22-rdf-syntax-ns#"
   xmlns:svg="http://www.w3.org/2000/svg"
   xmlns="http://www.w3.org/2000/svg"
   viewBox="0 0 33.6 45"
   height="45"
   width="33.6"
   xml:space="preserve"
   id="svg2"
   version="1.1"><metadata
     id="metadata8"><rdf:RDF><cc:Work
         rdf:about=""><dc:format>image/svg+xml</dc:format><dc:type
           rdf:resource="http://purl.org/dc/dcmitype/StillImage" /><dc:title></dc:title></cc:Work></rdf:RDF></metadata><defs
     id="defs6" /><g
     transform="matrix(1.33,0,0,-1.33,0.008,45)"
     id="g10"><g
       transform="matrix(1,0,0,-1,-0.006,0)"
       id="g12"><path
         id="path14"
         style="fill:#1d1d1b;fill-opacity:1;fill-rule:nonzero;stroke:none"
         d="M 23.2,-19.4 C 22.4,-13.4 19.6,-6.64 15.3,-1.89 13.5,-2.36 12,-3.13 10.6,-4.11 9.51,-5.03 8.56,-6.05 7.54,-7.08 7.44,-7.19 7.3,-7.22 7.17,-7.21 4.89,-9.88 3.31,-13.1 2.36,-16.2 1.41,-19.4 1.08,-22.7 2.71,-25.7 4.42,-28.8 7.94,-31.1 11.6,-32 15.5,-33 19.6,-31.7 21.8,-28.6 23.6,-25.9 23.5,-22.4 23.2,-19.4 Z M 22,-31.1 C 19.3,-33.8 14.9,-34.3 11.1,-33.5 7.14,-32.6 3.67,-30 1.58,-26.9 -0.452,-23.9 -0.212,-20.3 0.573,-16.9 1.62,-12.5 4.43,-6.97 8.74,-3.7 10.4,-2 12.8,-0.646 14.9,-0.026 15.2,0.061 15.5,-0.076 15.6,-0.276 15.8,-0.276 16,-0.34 16.2,-0.522 21.7,-6.1 24.9,-14.3 25.2,-21.7 25.4,-25 24.5,-28.5 22,-31.1 Z" /><path
         id="path16"
         style="fill:#1d1d1b;fill-opacity:1;fill-rule:nonzero;stroke:none"
         d="M 14,-15.1 C 8.74,-14.6 4.81,-17.9 4.83,-22.6 4.87,-27.4 9.19,-30.5 14.3,-30.3 14.5,-30.3 14.6,-30.4 14.6,-30.5 15.5,-30.4 16.4,-30.3 17.2,-29.8 19.3,-28.9 20.5,-26.9 21.1,-25 22.7,-20.1 19.7,-15.6 14,-15.1 Z M 9.25,-30.5 C 9.2,-30.5 9.17,-30.5 9.15,-30.4 5.93,-29.3 3.73,-26.5 3.42,-22.9 2.9,-17 8.37,-13.3 14.5,-13.8 21,-14.4 24,-19.7 22.7,-25 21.3,-30.6 14.8,-33.8 9.25,-30.5 Z" /></g></g></svg>