<?xml version="1.0" encoding="UTF-8" standalone="no"?>
<svg
   xmlns:dc="http://purl.org/dc/elements/1.1/"
   xmlns:cc="http://creativecommons.org/ns#"
   xmlns:rdf="http://www.w3.org/1999/02/22-rdf-syntax-ns#"
   xmlns:svg="http://www.w3.org/2000/svg"
   xmlns="http://www.w3.org/2000/svg"
   viewBox="0 0 32.2 43.5"
   height="43.5"
   width="32.2"
   xml:space="preserve"
   id="svg2"
   version="1.1"><metadata
     id="metadata8"><rdf:RDF><cc:Work
         rdf:about=""><dc:format>image/svg+xml</dc:format><dc:type
           rdf:resource="http://purl.org/dc/dcmitype/StillImage" /><dc:title></dc:title></cc:Work></rdf:RDF></metadata><defs
     id="defs6" /><g
     transform="matrix(1.33,0,0,-1.33,1.76e-4,43.5)"
     id="g10"><g
       transform="scale(1,-1)"
       id="g12"><path
         id="path14"
         style="fill:#1d1d1b;fill-opacity:1;fill-rule:nonzero;stroke:none"
         d="M 24,-25.1 C 23.6,-27.5 21.6,-32.4 18.5,-32.4 18.3,-32.7 17.8,-32.9 17.5,-32.5 16.8,-31.8 16.1,-30.9 15.5,-30 15.3,-29.7 15.1,-29.4 14.9,-29.1 14.6,-28.8 14.4,-28.4 14.1,-28 14,-27.8 14,-27.5 14.1,-27.3 13.7,-26.5 13.5,-25.6 13.5,-24.5 13.5,-22.6 16.2,-21.4 17.8,-20.8 17.6,-19.8 17.4,-18.8 17,-17.8 16.5,-16.6 15.7,-15.4 14.9,-14.3 13.1,-11.9 10.9,-9.9 8.59,-8.15 8.2,-8.72 7.7,-9.18 7.14,-9.58 6.67,-9.94 6.08,-10.3 5.5,-10.5 5.39,-10.8 5.13,-10.9 4.88,-10.7 1.64,-8.73 0.528,-4.87 0.011,-1.31 -0.041,-0.954 0.086,-0.617 0.459,-0.513 9.49,1.99 15.8,-5.11 20.4,-12 23,-15.7 24.8,-20.5 24,-25.1 Z" /></g></g></svg>